<svg xmlns="http://www.w3.org/2000/svg" fill="none" viewBox="0 0 827 650">
  <path d="M553.338 328.579c.053-.567.107-1.145.15-1.723.299 1.691.599 3.393.973 5.062l1.573 7.417c.546 2.461 1.07 4.933 1.551 7.405a.318.318 0 00.289.257h.011c.321.032.631.064.952.107l.107 2.943-1.027.407c-3.852 1.541-8.987-1.285-8.987-1.285.264-.774.387-1.59.364-2.407a46.59 46.59 0 001.894-5.972c.513-2.001.948-4.02 1.305-6.057.363-2.044.642-4.088.845-6.154z" fill="#0C513F"/>
  <path d="M589.926 267.066v-.011c-.203-.428-.3-.653-.3-.653l-.01-.011a17.85 17.85 0 00-6.152-1.905c-.032 0-.064-.01-.085-.01a43.914 43.914 0 00-4.793-.6.39.39 0 00-.118-.01c-4.247-.289-8.516.075-10.527 1.819l-.011.011a61.835 61.835 0 01-5.777 4.291c-.053.032-.096.075-.149.107a181.364 181.364 0 01-8.078 5.094c-.01.011-.021.022-.032.022-3.691 2.333-5.734 6.367-6.857 10.038-.032.096-.054.182-.086.278a.128.128 0 01-.011.064 94.168 94.168 0 01-.278 5.212 88.544 88.544 0 01-1.134 8.658 58.39 58.39 0 01-.941 4.291 21.492 21.492 0 01-1.552 4.249c-.321.674-.705 1.348-1.059 1.969a17.42 17.42 0 00-1.979 5.736 21.962 21.962 0 00.278 8.219 38.923 38.923 0 005.061 11.89c.017.018.032.04.042.064.043.064.086.139.129.203.053.086.117.182.171.278.032.043.054.086.086.129a.087.087 0 01.021.043c.032.066.067.13.107.192.107.193.236.407.364.642.203.386.438.824.684 1.317v.01c.129.247.246.503.375.76.096.193.182.396.267.599.097.215.193.439.279.664a.927.927 0 01.074.182c.129.321.257.653.375.985.021.064.043.117.064.182.086.246.171.492.246.749a.321.321 0 00.021.075.07.07 0 01.011.042.155.155 0 01.022.075c.064.214.128.439.192.664-.011.011 0 .011 0 .021v.011a14.938 14.938 0 01.257 1.22c.032.193.064.385.086.578.032.289.064.567.074.845a48.12 48.12 0 01.268-5.843c.203-2.055.481-4.109.834-6.143a77.521 77.521 0 011.306-6.068 56.485 56.485 0 011.273-4.302c-.396-2.333-.675-4.687-.952-7.042a110.781 110.781 0 01-.482-15.207c.106-2.544.377-5.079.813-7.587.107-.621.225-1.252.396-1.873.15-.621.278-1.242.481-1.841a13.862 13.862 0 011.466-3.542.104.104 0 01.139-.043.119.119 0 01.046.062.113.113 0 01-.003.077v.011a25.633 25.633 0 00-1.498 7.298 72.425 72.425 0 00-.31 7.481c.021 4.998.406 9.985.856 14.983l.781 7.48c.299 2.494.524 4.998.898 7.491.364 2.483.674 4.987 1.145 7.459.471 2.398.941 4.774 1.455 7.16 4.835.428 9.725.589 14.571.535 2.461-.043 4.921-.107 7.35-.332a34.79 34.79 0 003.562-.513 9.012 9.012 0 002.685-.91l3.081-25.866 1.498-13.153c.214-2.194.417-4.388.578-6.581.193-2.205.268-4.399.257-6.603v-.011a.12.12 0 01.033-.074.12.12 0 01.074-.033.101.101 0 01.072.027.11.11 0 01.035.069c.458 4.419.568 8.867.331 13.303-.139 4.43-.46 8.85-.823 13.27-.396 4.409-.813 8.818-1.37 13.206-.513 4.398-1.177 8.764-1.808 13.152l-.01.075a.83.83 0 01-.354.567 8.855 8.855 0 01-3.808 1.445v2.119c12.196-.535 19.663-5.169 23.718-8.85v-.011a25.053 25.053 0 002.824-2.975c.421-.514.803-1.058 1.145-1.627a376.686 376.686 0 00-21.91-69.518zm-28.8 75.661a1.605 1.605 0 01-1.098-2.721 1.61 1.61 0 011.098-.49 1.61 1.61 0 011.549 1.606 1.604 1.604 0 01-1.549 1.605zm7.703.385a1.604 1.604 0 01-1.099-2.72c.289-.3.683-.475 1.099-.49a1.603 1.603 0 011.548 1.605 1.608 1.608 0 01-1.548 1.605zm6.547 0a1.604 1.604 0 01-1.098-2.72c.289-.3.683-.475 1.098-.49a1.605 1.605 0 010 3.21zm6.548-.385a1.605 1.605 0 010-3.211 1.61 1.61 0 011.548 1.606 1.604 1.604 0 01-1.548 1.605zm-319.332 99.248c-.225 1.231-5.307 2.226-11.544 2.226-6.376 0-11.554-1.038-11.554-2.311a1.52 1.52 0 00-1.519 1.562l.717 27.696a1.54 1.54 0 00.706 1.253 21.206 21.206 0 0023.44-.643 1.525 1.525 0 00.663-1.262V443.27a1.376 1.376 0 00-.909-1.295zm-13.202 26.894a6.567 6.567 0 01-6.076-2.997 11.867 11.867 0 01-2.023-8.7c.283-1.98.917-3.894 1.873-5.651a5.912 5.912 0 015.67-3.018 2.333 2.333 0 012.321 1.734c.078.449.044.91-.097 1.343a2.797 2.797 0 01-.716 1.14c-1.733 1.766-5.702 6.624-1.476 10.231 3.947 3.371 3.488 5.586.524 5.918zm13.694-88.493c-7.04.096-14.079.417-21.097 1.006a12.905 12.905 0 002.171-5.244c.578-5.394 8.602-10.402 8.602-10.402l-.032-1.445 7.029-1.252a14.32 14.32 0 0011.554 7.32c8.088.428 36.994-12.457 40.632-14.255 26.189 14.448 13.672 31.977 13.672 31.977a21.574 21.574 0 00-4.782-2.279c-1.669-.6-3.381-1.071-5.092-1.509-3.445-.824-6.933-1.413-10.442-1.894-6.997-.974-14.036-1.445-21.086-1.777a366.576 366.576 0 00-21.129-.246z" fill="#0C513F"/>
  <path d="M314.831 429.497h-93.267s1.508-18.225.567-20.622c4.429-14.255 13.747-20.409 13.747-20.409a41.27 41.27 0 006.109-7.084c7.039.246 14.068.464 21.086.653 7.029.214 14.047.406 21.054.728 3.509.128 7.008.31 10.506.524 3.498.192 6.997.471 10.484.77 3.477.332 6.965.696 10.41 1.263a37.052 37.052 0 0110.088 2.761c7.895 3.275 8.28 14.833 8.28 14.833 2.311 22.345-19.064 26.583-19.064 26.583zM212.578 257.863a14.877 14.877 0 002.798-2.437 14.487 14.487 0 002.066-2.966 16.786 16.786 0 001.307-3.389c.194-.584.265-1.199.422-1.805.118-.612.185-1.234.327-1.865.1.633.166 1.27.197 1.91.005.645-.038 1.29-.128 1.929a11.668 11.668 0 01-1.179 3.718 10.688 10.688 0 01-2.431 3.064 8.23 8.23 0 01-3.379 1.841zm25.997 16.373c-.124-1.31-.103-2.63.063-3.935.076-.669.214-1.329.412-1.972a5.43 5.43 0 011.056-1.808 5.609 5.609 0 013.756-1.878 6.036 6.036 0 012.164.214 40.56 40.56 0 001.856.463 21.35 21.35 0 007.449.499 8.215 8.215 0 005.888-3.343l.034-.045.048-.059c.319-.403.589-.843.805-1.31a6.604 6.604 0 00.379-4.639l-.009-.037a.853.853 0 01-.022-.112c-.07-.635-.08-1.275-.03-1.912a7.555 7.555 0 01.376-1.918 4.871 4.871 0 011.099-1.849 4.177 4.177 0 012.005-1.065.827.827 0 01.165-.02l.062-.001a6.009 6.009 0 003.098-.801c.379-.241.668-.6.821-1.022.073-.22.113-.449.12-.68l.008-.179.005-.089.003-.045c-.003-.04.009.061.009.049v.002a2.321 2.321 0 00-.097-.303 14.131 14.131 0 00-1.954-3.032 18.325 18.325 0 01-2.191-3.422 16.199 16.199 0 01-1.636-7.83c.075-2.612.398-5.211.964-7.762a53.487 53.487 0 00-.094 7.762c.131 2.51.844 4.955 2.081 7.143a16.748 16.748 0 002.162 3.017 14.025 14.025 0 012.381 3.408c.088.2.16.407.214.619l.012.061a.83.83 0 01.015.11l.002.077.002.154.002.308a4.294 4.294 0 01-.186 1.233 3.987 3.987 0 01-1.486 2.028 7.503 7.503 0 01-4.292 1.261l.227-.021c-.352.085-.676.26-.941.507-.27.304-.47.664-.588 1.053a5.46 5.46 0 00-.254 1.4c-.033.489-.021.981.034 1.468l-.032-.148a8.578 8.578 0 01.125 4.157 8.662 8.662 0 01-.677 1.966 8.292 8.292 0 01-1.152 1.797l.082-.103a9.978 9.978 0 01-7.364 4.009 21.792 21.792 0 01-8.037-.906 31.21 31.21 0 01-1.902-.614 4.727 4.727 0 00-1.689-.293 4.87 4.87 0 00-3.196 1.276 4.636 4.636 0 00-1.055 1.453 10.396 10.396 0 00-.569 1.808 22.628 22.628 0 00-.531 3.851zm-2.792-22.538c.163.926.411 1.835.74 2.715a14.2 14.2 0 001.188 2.45 16.068 16.068 0 001.617 2.203c.595.711 1.273 1.352 1.943 2.071a8.478 8.478 0 01-2.528-1.474 9.133 9.133 0 01-1.947-2.246 8.601 8.601 0 01-1.074-2.782 6.246 6.246 0 01.061-2.937z" fill="#0C513F"/>
  <path d="M214.945 256.418a10.317 10.317 0 00-1.662-.864 3.325 3.325 0 00-.87-.234c-.291-.036-.542.028-.604.229a2.848 2.848 0 00.3 1.642c.239.568.508 1.123.806 1.662l-.079-.107c1.834 1.538 3.753 2.999 5.687 4.412 1.951 1.393 3.925 2.751 5.978 3.963a50.97 50.97 0 006.31 3.255 25.586 25.586 0 006.654 1.865l.049.006a.952.952 0 01.644.369 5.1 5.1 0 01.973 2.073c.174.84.038 1.715-.385 2.461a4.584 4.584 0 01-1.666 1.607 2.251 2.251 0 00-.871.874 5.568 5.568 0 00-.547 2.906c.044 1.109.213 2.209.504 3.28l.019.071a.896.896 0 01-.024.542c-.122.348-.31.669-.556.944a2.396 2.396 0 01-.97.663c-.693.209-1.44.14-2.084-.193a8.472 8.472 0 01-2.349-1.969.828.828 0 01-.109-.146l-.017-.03a7.909 7.909 0 00-1.038-1.324c-.414-.432-.86-.831-1.335-1.193a14.45 14.45 0 00-3.161-1.781l-.036-.015a.821.821 0 01-.348-.271c-1.106-1.498-2.332-2.97-3.584-4.384-1.249-1.425-2.546-2.814-3.929-4.108a38.746 38.746 0 00-4.34-3.669 22.706 22.706 0 00-4.99-2.744 19.252 19.252 0 015.314 2.245 37.574 37.574 0 014.741 3.349c1.497 1.231 2.906 2.559 4.273 3.93 1.352 1.393 2.648 2.808 3.89 4.337l-.383-.286a14.715 14.715 0 013.661 1.895c.567.408 1.101.86 1.598 1.351a9.374 9.374 0 011.388 1.702l-.126-.176a6.794 6.794 0 001.757 1.436.873.873 0 00.513.104c.027-.026.068-.025.119-.095.048-.063.091-.13.125-.201l-.005.612a16.736 16.736 0 01-.622-3.803 7.556 7.556 0 01.802-4.056 4.457 4.457 0 011.644-1.628c.369-.196.684-.48.916-.828.177-.304.234-.663.159-1.007a3.135 3.135 0 00-.526-1.161l.693.375a25.168 25.168 0 01-7.205-2.161 44.521 44.521 0 01-6.433-3.605 65.843 65.843 0 01-5.878-4.352 67.959 67.959 0 01-5.409-4.896l-.022-.023a.288.288 0 01-.057-.085 18.321 18.321 0 01-.683-1.799 6.294 6.294 0 01-.223-.959 1.807 1.807 0 01.1-1.063.728.728 0 01.485-.378c.18-.038.365-.036.544.006.319.078.626.2.912.361.554.308 1.079.665 1.568 1.067zm26.326 9.002a24.271 24.271 0 017.219 3.953 34.614 34.614 0 015.873 5.855 40.21 40.21 0 012.342 3.445c.348.601.746 1.178 1.052 1.802l.917 1.874c.64 1.239 1.055 2.572 1.593 3.856.451 1.314.825 2.654 1.241 3.983a.354.354 0 01.016.085l.004.05a76.12 76.12 0 00.975 8.092c.228 1.327.524 2.641.889 3.937a14.878 14.878 0 001.44 3.589.801.801 0 01.078.168l.008.023a131.66 131.66 0 002.097 5.88c.372.971.762 1.931 1.173 2.873.39.926.838 1.827 1.341 2.698a.992.992 0 01-.114 1.172 58.982 58.982 0 01-3.841 3.812 65.057 65.057 0 01-4.153 3.446 38.24 38.24 0 01-9.454 5.406l.7-1.005c.04 4.355.004 8.704-.046 13.059l-.13 6.537c-.079 2.195-.119 4.335-.404 6.626a.715.715 0 01-.026.122l-.009.032a3.245 3.245 0 00-.139.886.886.886 0 00.031.245.207.207 0 00-.098-.077c-.002-.004-.005-.006-.009-.008a.029.029 0 00-.013 0c-.045-.008.081.024.17.059.087.032.171.072.25.121.205.136.378.314.508.523.154.248.273.517.354.799.13.44.228.89.291 1.346.216 1.675.316 3.363.301 5.052a.917.917 0 01-.111.444.91.91 0 01-.309.337l-.021.014a29.745 29.745 0 00-5.385 4.432 15.185 15.185 0 00-2.043 2.728l-.376.74-.281.764c-.151.526-.221.979-.365 1.693a17.38 17.38 0 01-3.518 6.642 43.44 43.44 0 01-5.025 5.364l-.051.04-.017.013a31.197 31.197 0 00-4.592 4.028 40.1 40.1 0 00-3.9 4.802 42.438 42.438 0 00-3.143 5.357 49.857 49.857 0 00-2.432 5.744 47.222 47.222 0 012.103-5.898 42.885 42.885 0 012.936-5.556 41.027 41.027 0 013.755-5.069 28.181 28.181 0 014.64-4.367l-.068.052a42.334 42.334 0 004.723-5.324 16.1 16.1 0 003.074-6.119c.09-.469.181-1.22.353-1.853l.32-.944.418-.886a16.817 16.817 0 012.2-3.119 29.273 29.273 0 015.682-4.853l-.44.794a35.284 35.284 0 00-.346-4.75c-.094-.693-.398-1.673-.457-1.346a1.835 1.835 0 01-.91-.956 2.676 2.676 0 01-.192-.956 5.135 5.135 0 01.213-1.538l-.035.154c.216-2.029.263-4.243.328-6.39l.1-6.503.018-13.024a1.08 1.08 0 01.7-1.005 36.195 36.195 0 008.93-5.067 62.854 62.854 0 004.029-3.313c1.294-1.155 2.577-2.371 3.742-3.613l-.114 1.172a25.736 25.736 0 01-1.421-2.951c-.414-.986-.8-1.975-1.165-2.969a131.597 131.597 0 01-2.046-6.001l.086.19a16.44 16.44 0 01-1.526-4.074 40.114 40.114 0 01-.816-4.123 77.49 77.49 0 01-.773-8.29l.02.135c-.371-1.301-.699-2.618-1.103-3.91-.491-1.259-.859-2.573-1.449-3.792a41.599 41.599 0 00-3.928-7.102 33.92 33.92 0 00-5.502-5.991 25.479 25.479 0 00-6.937-4.303z" fill="#0C513F"/>
  <path d="M211.652 256.504a63.917 63.917 0 00-7.183 8.283c-2.225 2.907-4.294 5.934-6.287 9.006-4.013 6.112-7.842 12.422-11.215 18.868-6.676 12.929-11.83 26.935-13.706 41.516a72.149 72.149 0 00-.315 2.725c-.065.878-.029 1.828-.033 2.739l.025 5.521.076 11.041c.025 7.358.005 14.715-.06 22.068-.031 14.711-.358 29.41-.849 44.112l-.165-.521a27.706 27.706 0 004.554 4.755 16.941 16.941 0 005.714 3.171c2.103.638 4.351.617 6.442-.061a15.541 15.541 0 005.621-3.578.101.101 0 01.077-.03c.014 0 .027.003.04.009a.101.101 0 01.035.023.11.11 0 01.003.146 15.22 15.22 0 01-5.527 4.108 11.206 11.206 0 01-6.983.473 18.22 18.22 0 01-6.32-3.099 26.168 26.168 0 01-5.055-4.901.755.755 0 01-.165-.471v-.05c-.047-14.72.069-29.443.481-44.154.161-7.357.362-14.712.606-22.065l.408-11.025.192-5.513c.05-.926.029-1.82.108-2.775a75.66 75.66 0 01.358-2.75 180.556 180.556 0 014.767-21.599 117.066 117.066 0 017.975-20.689c.846-1.65 1.765-3.263 2.674-4.879l2.869-4.735c1.975-3.119 3.942-6.244 6.09-9.251 4.32-5.964 8.808-11.953 14.62-16.59a.107.107 0 01.147.013.11.11 0 01.026.076.102.102 0 01-.034.072l-.011.011z" fill="#0C513F"/>
  <path d="M198.714 279.309a21.55 21.55 0 016.415-2.802 22.501 22.501 0 017.067-.78c2.43.146 4.798.83 6.932 2.002a12.535 12.535 0 014.812 5.176 20.659 20.659 0 00-5.559-3.683 21.082 21.082 0 00-6.315-1.36 35.438 35.438 0 00-6.616.278 83.935 83.935 0 00-6.736 1.169zm-4.529 6.731a46.94 46.94 0 00-3.547 15.151 59.285 59.285 0 00-.054 7.772c.191 2.559.5 5.225.583 7.882a57.303 57.303 0 01-.163 8.002 21.506 21.506 0 01-.738 4.034 5.991 5.991 0 01-.358 1.009 4.515 4.515 0 01-.505 1l-.319.491-.246.361a3.838 3.838 0 00-.452.757 18.447 18.447 0 00-1.298 3.564 46.206 46.206 0 00-.865 3.804 70.762 70.762 0 00-1.03 7.782l-.207-.336a64.172 64.172 0 0012.559 3.682 70.362 70.362 0 0013.004 1.166 56.288 56.288 0 0012.834-1.563 43.3 43.3 0 0011.795-4.951l-.525 1.075a458.594 458.594 0 00-1.69-12.762c-.31-2.119-.683-4.227-1.1-6.3a27.624 27.624 0 00-.755-3.015 4.888 4.888 0 00-.251-.651l-.359-.845a8.923 8.923 0 01-.343-1.788 69.315 69.315 0 01.654-13.075 192.325 192.325 0 011.947-12.811.106.106 0 01.016-.038.092.092 0 01.029-.03.1.1 0 01.08-.017.108.108 0 01.087.115 608.003 608.003 0 00-.933 12.888 154.044 154.044 0 00-.244 6.431 43.037 43.037 0 00.205 6.31c.058.466.16.926.306 1.373l.301.63c.14.272.262.553.365.841.374 1.055.688 2.13.939 3.22.517 2.134.897 4.274 1.257 6.412.726 4.277 1.26 8.562 1.719 12.871l.006.05a1.047 1.047 0 01-.531 1.025 45.418 45.418 0 01-12.519 4.959 52.338 52.338 0 01-13.316 1.132 75.784 75.784 0 01-13.144-1.856 87.396 87.396 0 01-12.668-3.845.334.334 0 01-.208-.325l.001-.012c.15-2.644.384-5.27.711-7.903.168-1.315.374-2.629.653-3.939a19.508 19.508 0 011.182-3.913c.133-.338.302-.661.504-.964l.288-.468.192-.354c.145-.243.257-.505.333-.778.111-.279.195-.569.25-.865.28-1.231.46-2.483.537-3.743.187-2.564.182-5.168.117-7.772a90.24 90.24 0 00-.184-3.9c-.085-1.29-.231-2.642-.246-3.969a51.349 51.349 0 01.364-7.995 40.126 40.126 0 014.794-15.112.104.104 0 01.062-.049.109.109 0 01.079.007.104.104 0 01.052.059.108.108 0 01-.003.079l-.004.01zm57.421 7.395a32.963 32.963 0 011.958 9.154c.287 3.105.392 6.224.315 9.341a185.334 185.334 0 01-.22 4.66c-.151 1.548-.243 3.099-.449 4.64a78.579 78.579 0 01-1.604 9.191c-.153-3.124-.114-6.216-.062-9.303l.197-9.237c.098-3.074.126-6.142.162-9.213a90.032 90.032 0 00-.297-9.233zm-12.068-18.364c.576 8.321 1.05 16.641 1.422 24.962.403 8.32.701 16.642 1.038 24.962l.902 24.957c.153 4.16.317 8.318.527 12.472.109 2.076.165 4.161.355 6.229.087 1.035.148 2.077.257 3.11l.397 3.097-.717-3.05c-.195-1.026-.331-2.06-.5-3.091-.351-2.064-.567-4.137-.837-6.209a317.803 317.803 0 01-1.149-12.463c-.35-4.157-.549-8.32-.812-12.482l-.56-12.491c-.294-8.33-.502-16.661-.563-24.995-.089-8.334-.009-16.67.24-25.008zm.578-1.461a3.95 3.95 0 011.665-.605 2.644 2.644 0 011.859.434c.54.401.927.975 1.095 1.626.17.597.249 1.215.234 1.835a10.248 10.248 0 00.229 3.205 1.794 1.794 0 00.884 1.082 2.593 2.593 0 001.592.128 2.34 2.34 0 01-1.754.371 2.275 2.275 0 01-1.486-1.243 7.912 7.912 0 01-.534-3.55c.122-1-.158-2.008-.778-2.802a3.504 3.504 0 00-3.006-.481zm3.779-3.901a4.12 4.12 0 011.845.588 5.17 5.17 0 011.485 1.297c.415.529.705 1.146.848 1.803a3.708 3.708 0 01-.062 1.947c-.265-.606-.444-1.163-.726-1.671a8.098 8.098 0 00-.907-1.426 18.847 18.847 0 00-2.483-2.538z" fill="#0C513F"/>
  <path d="M231.597 306.432c1.39-.253 2.781-.401 4.171-.551a.485.485 0 01.532.405l.018.111c.612 3.804.99 7.622 1.246 11.448.1 1.915.204 3.829.231 5.749.041 1.918.02 3.841-.045 5.766l-.004.109a.46.46 0 01-.453.444c-1.297.017-2.593.039-3.902-.033 1.249-.397 2.51-.699 3.77-1.007l-.457.553a105.582 105.582 0 01-.774-5.714c-.216-1.907-.356-3.819-.499-5.731-.23-3.828-.338-7.663-.213-11.514l.55.516c-1.39-.149-2.781-.297-4.171-.551zm21.264-2.98c-2.758.753-5.539 1.338-8.324 1.895l.645-.739c.102 1.948.19 3.895.233 5.843.076 1.948.056 3.895.087 5.843-.015 3.896-.064 7.791-.284 11.686l-1.088-.719c1.396-.533 2.817-1.097 4.193-1.724a32.55 32.55 0 002.036-1.003 8.507 8.507 0 001.874-1.286 7.09 7.09 0 01-1.569 1.727c-.597.502-1.224.969-1.875 1.398a36.56 36.56 0 01-4.046 2.327.758.758 0 01-.711-.025.755.755 0 01-.373-.605l-.005-.09c-.219-3.895-.269-7.79-.284-11.686.031-1.948.011-3.895.087-5.843.043-1.948.131-3.895.233-5.843l.004-.084a.695.695 0 01.641-.656c2.832-.213 5.667-.399 8.526-.416zm-61.34 46.439c.366 4.355.719 8.712 1.143 13.057.217 2.171.442 4.346.752 6.489.366 2.18.545 4.386.535 6.596.056 4.402-.163 8.803-.655 13.178a44.052 44.052 0 01-.527 3.281 79.34 79.34 0 00-.528 3.195 47.835 47.835 0 00-.513 6.426 60.483 60.483 0 00.99 12.855c.21 1.04.475 2.067.795 3.077.31 1.014.744 1.914 1.151 3.037a33.41 33.41 0 011.503 6.57 61.98 61.98 0 01.179 13.292 40.587 40.587 0 01-1.121 6.605 15.308 15.308 0 01-1.224 3.24 6.329 6.329 0 01-1.099 1.533 2.885 2.885 0 01-2.032.918l.208-.027c-2.113.476-4.155.768-6.239 1.044-2.074.269-4.151.482-6.23.659-4.157.357-8.319.579-12.481.71l.048-.005a13.497 13.497 0 00-4.342 1.281c-.628.351-1.161.86-1.101 1.404a2.922 2.922 0 001.142 1.632.414.414 0 01-.118.702 12.36 12.36 0 00-3.386 1.914c-.475.362-.83.858-1.019 1.425a1.612 1.612 0 00.552 1.478c.462.439.989.805 1.562 1.085a5.743 5.743 0 001.815.539 7.57 7.57 0 003.803-.455.325.325 0 01.359.08.326.326 0 01.076.324.334.334 0 01-.125.175 10.044 10.044 0 00-2.697 2.693 2.384 2.384 0 00-.428 1.643 1.997 1.997 0 001.057 1.259l.039.026a3.932 3.932 0 001.719.326c.642.001 1.283-.053 1.916-.159a25.052 25.052 0 003.779-1.014 55.515 55.515 0 007.205-3.226.404.404 0 01.301-.031.405.405 0 01.287.484.404.404 0 01-.172.249l-.013.009a23.637 23.637 0 00-3.926 3.198 6.933 6.933 0 00-2.288 4.109 2.25 2.25 0 00.204 1.041c.072.165.159.324.261.473.051.074.113.14.168.211l.085.105c.06.068-.043-.036.015.008.7.208 1.445.214 2.149.018 1.627-.394 3.2-.983 4.686-1.755a67.443 67.443 0 008.702-5.401c2.803-1.975 5.51-4.095 8.205-6.228l-.048.041a17.252 17.252 0 013.089-2.218c1.14-.671 2.4-1.111 3.709-1.296a5.338 5.338 0 014.06 1.122 7.893 7.893 0 012.263 3.356 24.375 24.375 0 011.285 7.377c.067 1.236.016 2.463.104 3.568.076 1.108.297 2.2.658 3.25.153.465.377.904.663 1.301.275.341.488.443.697.442.348-.036.676-.181.935-.416.319-.298.564-.667.715-1.078.196-.506.352-1.026.466-1.557.148-.609.31-1.208.486-1.796.35-1.175.725-2.302 1.029-3.425a31.384 31.384 0 00.297-13.796 1.212 1.212 0 01-.005-.335c1.203-9.017 2.282-18.067 3.151-27.12.408-4.527.839-9.056 1.032-13.575.069-1.132.058-2.252.091-3.379l-.078-3.376-.043-1.747.03-1.724c.01-1.15.047-2.296.101-3.437.358-9.144 1.178-18.227 1.964-27.315.792-9.087 1.782-18.154 2.763-27.22a.106.106 0 01.039-.071.107.107 0 01.15.014.107.107 0 01.025.077c-.674 9.093-1.218 18.195-1.827 27.288-.554 9.094-1.105 18.2-1.355 27.281a89.684 89.684 0 00-.046 3.397l-.003 1.696.068 1.67.134 3.457c-.015 1.151.013 2.312-.037 3.457a225.358 225.358 0 01-.866 13.706c-.843 9.1-1.892 18.162-3.069 27.222l-.005-.335c.427 2.429.653 4.889.675 7.354a26.947 26.947 0 01-1.056 7.403c-.335 1.193-.73 2.341-1.077 3.463a39.05 39.05 0 00-.471 1.676c-.146.641-.343 1.27-.59 1.881a4.147 4.147 0 01-3.644 2.767 2.73 2.73 0 01-1.387-.404 3.514 3.514 0 01-.939-.864 6.762 6.762 0 01-.966-1.893 14.677 14.677 0 01-.736-3.796c-.084-1.291-.018-2.468-.072-3.631a22.597 22.597 0 00-1.091-6.771 6.111 6.111 0 00-1.649-2.594 3.468 3.468 0 00-2.68-.767 11.783 11.783 0 00-5.841 2.953l-.048.042c-2.748 2.112-5.513 4.207-8.406 6.133a68.738 68.738 0 01-9.007 5.298 22.196 22.196 0 01-5.026 1.745 4.564 4.564 0 01-2.926-.216.875.875 0 01-.234-.194l-.117-.148c-.076-.099-.159-.195-.228-.299a3.95 3.95 0 01-.35-.666 3.286 3.286 0 01-.26-1.481 5.368 5.368 0 01.944-2.658 12.243 12.243 0 011.716-2.07 24.448 24.448 0 014.154-3.244l.404.711c-1.199.585-2.386 1.193-3.611 1.726a45.899 45.899 0 01-3.729 1.481c-1.274.44-2.58.78-3.907 1.015-.676.109-1.36.16-2.045.154a4.228 4.228 0 01-2.129-.487l.038.025a2.663 2.663 0 01-1.37-1.725c-.094-.746.095-1.5.528-2.115a8.447 8.447 0 011.322-1.581 13.932 13.932 0 011.56-1.311l.31.578a8.25 8.25 0 01-4.143.538 6.42 6.42 0 01-2.052-.594 6.935 6.935 0 01-1.758-1.205 2.365 2.365 0 01-.768-2.163 3.684 3.684 0 011.248-1.851 13.101 13.101 0 013.611-2.095l-.119.702a3.63 3.63 0 01-1.459-2.19 1.946 1.946 0 01.468-1.401 3.92 3.92 0 011.022-.85c.72-.411 1.486-.734 2.282-.962a19.494 19.494 0 012.373-.554l.032-.003.017-.001a229.74 229.74 0 0012.395-1.02 140.18 140.18 0 006.153-.804c2.029-.317 4.099-.672 6.03-1.157l.039-.01a.65.65 0 01.17-.017c.519.023 1.187-.727 1.609-1.609a15.62 15.62 0 001.033-2.9 38.965 38.965 0 001.018-6.314c.37-4.289.279-8.605-.272-12.875a31.553 31.553 0 00-1.35-6.203c-.325-.936-.821-2.02-1.14-3.103a31.245 31.245 0 01-.814-3.274 62.14 62.14 0 01-.899-13.246c.049-2.22.248-4.434.594-6.628.164-1.095.377-2.181.603-3.261.241-1.08.43-2.098.588-3.176.585-4.302.903-8.636.95-12.978a38.536 38.536 0 00-.365-6.467c-.235-2.193-.379-4.374-.516-6.559a441.536 441.536 0 01-.602-13.106c0-.028.01-.055.029-.075a.106.106 0 01.149-.009.109.109 0 01.036.073v-.001zm47.973 91.999a.958.958 0 01.322-.732c.192-.194.409-.364.644-.504a8.834 8.834 0 011.436-.702 18.724 18.724 0 013.02-.846 33.361 33.361 0 0112.357-.032c1.032.195 2.046.476 3.03.842.505.186.99.421 1.45.701.243.145.465.325.657.533a.872.872 0 01.276.857.084.084 0 01-.017.034.113.113 0 01-.029.024.11.11 0 01-.035.011.114.114 0 01-.037-.003l-.01-.004-.437-.179.504-.008-.128.061c-.089-.371-.614-.527-1.047-.655a11.253 11.253 0 00-1.434-.259 41.96 41.96 0 00-2.958-.24 68.742 68.742 0 00-2.981-.101c-.993-.049-1.99-.034-2.986-.044-1.992-.014-3.983.018-5.973.094-.992.053-1.989.092-2.971.212-.49.047-.976.126-1.456.236-.449.135-.992.218-1.197.704zm9.908 27.085a7.79 7.79 0 01-6.504-2.513 10.169 10.169 0 01-2.636-6.745c.024-1.22.232-2.429.618-3.586.349-1.127.769-2.23 1.257-3.303a9.829 9.829 0 011.915-3.006 6.751 6.751 0 013.177-1.843 6.24 6.24 0 011.921-.171c.745.03 1.461.301 2.039.772a3.32 3.32 0 01.27 4.37 4.142 4.142 0 01-.35.442l-.28.316c-.177.205-.352.41-.516.622-.33.417-.635.853-.914 1.306a8.404 8.404 0 00-1.18 2.733 3.8 3.8 0 00.28 2.587c.228.42.501.812.815 1.172.341.399.798.876 1.148 1.354a6.34 6.34 0 011.529 3.362c.007.333-.068.662-.218.96-.161.279-.393.51-.673.67a4.023 4.023 0 01-1.698.501zm-.024-.212a3.474 3.474 0 001.543-.551 1.211 1.211 0 00.488-1.313 5.097 5.097 0 00-1.956-2.435c-.433-.361-.876-.602-1.355-1.006-.247-.215-.514-.408-.746-.653-.211-.266-.442-.519-.632-.809a5.629 5.629 0 01-.741-4.06 9.101 9.101 0 011.56-3.531 15.72 15.72 0 011.153-1.444c.202-.229.415-.449.627-.665l.311-.309c.072-.068.138-.142.2-.219a1.587 1.587 0 00.174-1.945 3.363 3.363 0 00-2.577-.689 5.07 5.07 0 00-2.877 1.218 6.623 6.623 0 00-1.773 2.743 13.12 13.12 0 00-.731 3.278 13.378 13.378 0 00-.005 3.249 17.199 17.199 0 001.962 6.041 6.211 6.211 0 002.165 2.357c.957.599 2.087.86 3.21.743z" fill="#0C513F"/>
  <path d="M161.563 459.722c2.676-.184 5.37-.48 8.029-.923a43.404 43.404 0 003.959-.829 16.256 16.256 0 003.787-1.408 16.336 16.336 0 01-3.711 1.664c-1.29.431-2.605.79-3.929 1.098a84.497 84.497 0 01-8.037 1.463.535.535 0 11-.143-1.061l.033-.004h.012zm3.419 6.725l16.593-7.092-16.144 8.063a.526.526 0 01-.409.03.528.528 0 01-.365-.471.544.544 0 01.13-.389.544.544 0 01.166-.128l.029-.013zm12.96 2.186l10.758-4.558-10.296 5.523a.537.537 0 11-.462-.965zm73.62-118.773a76.986 76.986 0 003.665 6.5 52.709 52.709 0 004.308 5.979 26.43 26.43 0 005.291 4.871 13.553 13.553 0 006.497 2.43l-.142.012A84.05 84.05 0 00289 364.656c5.766-2.28 11.396-4.87 17.076-7.317l16.928-7.626c2.836-1.246 5.619-2.603 8.48-3.81 2.817-1.295 5.649-2.566 8.525-3.762a.106.106 0 01.141.055c.01.024.011.05.004.075a.115.115 0 01-.045.059 240.826 240.826 0 01-8.015 4.781c-2.708 1.53-5.468 2.963-8.222 4.409-5.541 2.829-11.189 5.455-16.985 7.732-5.746 2.393-11.644 4.415-17.589 6.247l-8.89 2.817c-2.968.948-5.887 1.972-8.965 2.751a.316.316 0 01-.075.011l-.067.001a12.968 12.968 0 01-7.529-2.276 23.896 23.896 0 01-5.602-5.358 39.754 39.754 0 01-4.024-6.477 42.791 42.791 0 01-2.785-7.033.116.116 0 01.009-.082.108.108 0 01.064-.051.114.114 0 01.075.006.111.111 0 01.053.052zm14.756-29.378c.911 2.08 1.922 4.111 2.95 6.128 1.041 2.01 2.148 3.985 3.361 5.884a35.971 35.971 0 004.052 5.327 11.527 11.527 0 002.487 2.045 3.802 3.802 0 002.767.555.69.69 0 01.091-.015l.037-.003a99.934 99.934 0 0012.699-1.983 110.7 110.7 0 0012.391-3.413 88.166 88.166 0 0011.818-4.943l2.824-1.502c.928-.523 1.815-1.113 2.728-1.659l1.364-.832c.443-.293.867-.613 1.302-.919l2.596-1.853-.153.146 4.96-5.77 2.489-2.878 1.271-1.451a9.967 9.967 0 017.502-3.232c.707.017 1.287.066 1.936.098l7.593.481 3.797.245 1.898.122c.362.01.723.056 1.076.138.38.103.74.266 1.068.484a3.528 3.528 0 011.378 1.835 3.792 3.792 0 01-.005 2.225 5.7 5.7 0 01-2.447 3.334 5.444 5.444 0 01-1.941.76 9.14 9.14 0 01-1.997.073l-3.804-.102-7.607-.212.122-.196a7.834 7.834 0 01.455 3.766 7.711 7.711 0 00-.7-3.647.133.133 0 01-.005-.105.143.143 0 01.027-.046.15.15 0 01.043-.032.163.163 0 01.058-.013l7.607-.212 3.804-.102a8.217 8.217 0 001.791-.153 4.749 4.749 0 001.549-.692c1.857-1.185 2.805-4.284.937-5.36a2.301 2.301 0 00-.665-.274 4.087 4.087 0 00-.811-.067l-1.902-.06-3.802-.121-7.604-.248c-.618-.02-1.304-.062-1.864-.064a8.153 8.153 0 00-1.692.181 8 8 0 00-4.324 2.526l-1.211 1.431-2.455 2.906-4.928 5.798-.011.013a.94.94 0 01-.142.133 69.944 69.944 0 01-11.152 6.986 84.505 84.505 0 01-12.137 4.969 107.861 107.861 0 01-12.673 3.25c-4.29.811-8.628 1.343-12.986 1.594l.128-.018a5.087 5.087 0 01-3.723-.803c-1-.651-1.903-1.44-2.682-2.343a32.498 32.498 0 01-3.916-5.68 81.942 81.942 0 01-5.617-12.43z" fill="#0C513F"/>
  <path d="M380.112 291.38l-20.038 20.333c2.354.461 3.509 1.22 3.937 2.087.002.023.01.045.021.064 0 .011.011.011.011.022a2.432 2.432 0 01-.128 2.033c-.011.032-.022.054-.032.086a8.79 8.79 0 01-2.247 2.75l-.011.011a1.925 1.925 0 01-.631.31h-.021a11.95 11.95 0 01-2.632.385c-2.696.172-5.959 0-5.959 0l-16.561 17.69 28.329 32.63 56.787-54.065-40.825-24.336zm-24.852 55.264a1.605 1.605 0 010-3.211 1.607 1.607 0 010 3.211zm-2.568-16.063l28.244-29.976 24.648 16.684-33.378 30.329-19.514-17.037z" fill="#0C513F"/>
  <path d="M374.036 314.032l3.425-4.02 3.632-4.132.249-.283.336.218a402.591 402.591 0 016.493 4.297l.566.381-.506.458c-2.918 2.637-5.856 5.251-8.867 7.783l-.233.196-.209-.191c-1.73-1.584-3.343-3.223-4.886-4.707zm0 0c1.86 1.487 3.65 2.819 5.323 4.206l-.442.005c2.809-2.756 5.692-5.431 8.595-8.083l.06.838a528.202 528.202 0 01-6.403-4.431l.585-.064-3.755 3.708-3.963 3.821zm152.814-90.33a6.607 6.607 0 011.96-.937 8.88 8.88 0 012.144-.382c.74-.032 1.48.047 2.195.235a4.373 4.373 0 011.917 1.084 18.012 18.012 0 00-2.057-.261 23.99 23.99 0 00-2.007.011c-1.348.053-2.692.214-4.152.25zm3.595 7.642a1.605 1.605 0 001.099-2.722 1.604 1.604 0 00-1.099-.489 1.608 1.608 0 000 3.211zm-274.795-.807a6.577 6.577 0 011.959-.937 8.888 8.888 0 012.145-.382 7.385 7.385 0 012.195.235 4.373 4.373 0 011.917 1.084 17.78 17.78 0 00-2.058-.261 23.967 23.967 0 00-2.006.011c-1.349.053-2.693.214-4.152.25zm3.594 7.641a1.604 1.604 0 001.1-2.721 1.609 1.609 0 00-1.1-.489 1.604 1.604 0 00-1.099 2.721 1.6 1.6 0 001.099.489z" fill="#0C513F"/>
  <path d="M529.453 210.432a91.925 91.925 0 006.883 9.829 39.311 39.311 0 004.088 4.343 15.345 15.345 0 002.339 1.758 4.775 4.775 0 002.552.813l-.396.217a13.466 13.466 0 012.45-2.69 6.848 6.848 0 013.443-1.63 4.824 4.824 0 013.748 1.361 7.057 7.057 0 011.977 3.345c.301 1.232.376 2.509.221 3.768a13.82 13.82 0 01-.823 3.64 6.956 6.956 0 01-2.381 3.184 6.257 6.257 0 01-3.885 1.055l.986-.906c-.462 9.684-1.169 19.377-1.34 29.063-.003 1.209-.025 2.42.033 3.622.005.606.071 1.192.119 1.785.035.558.197 1.101.473 1.587a1.647 1.647 0 001.099.969c.548.055 1.1-.018 1.614-.214a17.51 17.51 0 003.208-1.545 132.688 132.688 0 0011.82-8.418l.007-.005a.334.334 0 01.073-.043 27.454 27.454 0 0116.414-1.37c.674.191 1.365.336 2.028.568l1.954.693a5.447 5.447 0 001.707.383c.52-.027.769-.149.951-.496a3.404 3.404 0 00.194-1.581 11.52 11.52 0 00-.281-1.874 30.736 30.736 0 00-1.176-3.788 77.554 77.554 0 00-3.263-7.383l-.459-.899c-.084-.156-.147-.293-.218-.402l-.258-.419-1.071-1.749-2.123-3.507c-2.815-4.687-5.586-9.401-8.165-14.249-.637-1.219-1.275-2.437-1.876-3.689a21.948 21.948 0 01-1.596-4.085l-.113-.693-.03-.427c-.01-.272-.084-.601-.12-.899a19.803 19.803 0 00-.46-1.873 24.77 24.77 0 00-1.405-3.659 19.916 19.916 0 00-10.779-10.761 16.56 16.56 0 00-7.764-.959c-2.702.2-5.388.58-8.039 1.139a67.695 67.695 0 00-7.868 2.144c-.642.226-1.293.43-1.927.679-.637.206-1.256.469-1.847.784a2.627 2.627 0 00-.718 3.484zm-.183.112a2.87 2.87 0 01.749-3.81 11.352 11.352 0 011.898-.839l1.916-.728a92.2 92.2 0 017.828-2.47 61.96 61.96 0 018.088-1.58c2.798-.476 5.67-.28 8.377.573a18.33 18.33 0 017.259 4.41 24.328 24.328 0 014.949 6.892 27.014 27.014 0 011.572 3.956c.213.681.389 1.379.538 2.095.054.377.137.717.163 1.126l.044.594c.033.104.061.207.083.311a22.479 22.479 0 001.452 3.492c.578 1.21 1.204 2.41 1.828 3.61 2.563 4.78 5.255 9.518 7.985 14.232l2.065 3.526 1.041 1.757.272.457c.11.18.188.355.263.5l.459.93a72.12 72.12 0 013.224 7.641c.469 1.326.851 2.68 1.145 4.055.148.717.238 1.445.266 2.177a4.905 4.905 0 01-.434 2.42c-.13.213-.279.416-.444.604-.188.179-.4.332-.63.453-.43.201-.901.299-1.375.289a6.506 6.506 0 01-2.254-.553l-1.876-.748c-.615-.243-1.26-.401-1.89-.608a25.96 25.96 0 00-15.729.764l.08-.047c-3.904 2.894-7.797 5.81-11.994 8.322a18.122 18.122 0 01-3.326 1.632 4.137 4.137 0 01-1.958.249 2.415 2.415 0 01-1.6-1.285 4.525 4.525 0 01-.609-1.851c-.067-.616-.15-1.236-.171-1.844-.08-1.223-.12-2.439-.165-3.658-.124-4.869-.092-9.731-.032-14.592.057-4.861.185-9.718.421-14.575l.002-.025a.928.928 0 01.971-.882l.014.001a4.4 4.4 0 004.46-3.035c.387-1.003.638-2.054.746-3.124a8.787 8.787 0 00-.059-3.156c-.43-1.947-2.041-3.846-3.952-3.745-1.955.169-3.832 1.829-5.175 3.517l-.037.046a.463.463 0 01-.16.128.463.463 0 01-.2.044 5.628 5.628 0 01-3.055-1.098c-.85-.58-1.641-1.24-2.365-1.971a44.525 44.525 0 01-3.934-4.599c-2.428-3.206-4.638-6.559-6.734-9.98z" fill="#0C513F"/>
  <path d="M549.538 241.943a14.593 14.593 0 01-.938 2.917 18.53 18.53 0 01-1.433 2.712 11.52 11.52 0 01-1.998 2.388c-.398.361-.85.658-1.34.879a2.06 2.06 0 01-1.573.089 3.606 3.606 0 002.319-1.554 24.543 24.543 0 001.695-2.383c1.081-1.653 2.072-3.378 3.268-5.048zm-1.442 99.875c.325.787.523 1.622.588 2.472-.866 2.258-4.696 9.792-4.696 9.792a4.497 4.497 0 01-1.648-.685c-4.975-2.954-15.202-14.673-18.7-18.782l-.075-.075a.59.59 0 00-.064-.085c-.685-.803-1.081-1.274-1.081-1.274 14.058-15.796 17.139-37.178 18.679-47.773 1.541-10.594 5.531-13.281 5.531-13.281l.064 2.162c-.01-.289-.043-.567-.064-.856a.31.31 0 01-.01.096 206.373 206.373 0 01-1.541 17.102c-.407 2.836-.877 5.661-1.476 8.444-.289 1.401-.653 2.771-1.006 4.141a19.037 19.037 0 01-1.466 3.853c-.299.62-.631 1.198-1.005 1.841a16.545 16.545 0 00-.995 2.065 18.65 18.65 0 00-1.188 4.409 22.347 22.347 0 00.524 8.957 32.56 32.56 0 003.445 8.155c.385.621.739 1.263 1.145 1.873l1.252 1.798c.834 1.177 1.808 2.247 2.706 3.371a16.5 16.5 0 011.081 2.28z" fill="#0C513F"/>
  <path d="M548.866 343.669c-.011.011 0 .011 0 .021v.011a2.393 2.393 0 01-.182.589 6.376 6.376 0 00-.032-1.36.072.072 0 00-.011-.042.28.28 0 01-.021-.075c-.075-.257-.16-.503-.246-.749-.022-.065-.043-.118-.064-.182a26.09 26.09 0 00-.375-.985.873.873 0 00-.075-.182 11.54 11.54 0 00-.278-.663 9.902 9.902 0 00-.267-.6c-.129-.256-.246-.513-.375-.759v-.011c-.246-.493-.481-.931-.684-1.316-.129-.236-.257-.45-.364-.643a1.566 1.566 0 01-.107-.192.087.087 0 00-.021-.043c-.033-.043-.054-.086-.086-.128-.054-.097-.118-.193-.171-.279-.043-.064-.086-.139-.129-.203a.212.212 0 00-.043-.064 38.945 38.945 0 01-5.06-11.89 21.962 21.962 0 01-.278-8.219 17.42 17.42 0 011.979-5.736c.353-.621.738-1.295 1.059-1.969a21.492 21.492 0 001.552-4.249 58.39 58.39 0 00.941-4.291 86.153 86.153 0 001.134-8.658c.139-1.734.235-3.467.278-5.212a.128.128 0 00.011-.064c.021-.621.032-1.252.043-1.883l.043 1.605 1.829 58.421zm2.085 6.382a9.254 9.254 0 01.534 3.268 9.166 9.166 0 01-.534 3.269 9.145 9.145 0 01-.535-3.269 9.232 9.232 0 01.535-3.268zm32.485-3.334a43.717 43.717 0 011.772 10.643c.272 3.586.452 7.177.539 10.771.087 3.592.124 7.186.111 10.779.038 3.598-.217 7.197-.334 10.775l-1.036 21.506-.52 10.753-.608 10.749-.039-.318c.517 1.706.669 3.501.447 5.269a10.941 10.941 0 01-1.995 4.952 5.19 5.19 0 01-.241.294l-.205.229-.414.456-.83.91-1.66 1.822-3.321 3.643-1.66 1.821-.831.911-.415.456c-.113.139-.226.27-.337.431a47.198 47.198 0 00-2.457 4.175 72.587 72.587 0 01-5.11 8.533 7.704 7.704 0 01-1.872 1.85 1.78 1.78 0 01-.757.316 1.78 1.78 0 01-.817-.054 3.034 3.034 0 01-.387-.213l-.292-.281c-.15-.195-.268-.397-.398-.598a5.187 5.187 0 01-.455-2.628c.051-.852.2-1.696.443-2.514a26.179 26.179 0 011.854-4.648l.577-1.105c.194-.325.338-.677.428-1.044.086-.355.102-.723.048-1.085a1.333 1.333 0 00-.395-.85c-.407-.334-1.29-.023-1.873.388a8.126 8.126 0 00-1.601 1.731c-1.032 1.284-2.062 2.57-3.119 3.835a80.487 80.487 0 01-3.27 3.722 37.037 37.037 0 01-1.76 1.763c-.307.283-.623.559-.954.824-.174.128-.337.262-.527.381a3.082 3.082 0 01-.291.176 1.26 1.26 0 01-.431.159l.056-.008a11.085 11.085 0 01-3.147.333 3.803 3.803 0 01-1.63-.434 2.277 2.277 0 01-1.115-1.39 4.242 4.242 0 01.553-3.261 6.783 6.783 0 011.017-1.26l1.052-1.114 4.209-4.456 2.105-2.227a22.075 22.075 0 001.967-2.212c.251-.378.444-.791.572-1.226a1.69 1.69 0 00.072-1.016c.04-.048-.299-.135-.733-.023a3.697 3.697 0 00-1.196.51 27.202 27.202 0 00-2.225 1.944c-.76.694-1.55 1.357-2.334 2.027a49.787 49.787 0 01-5.004 3.701 22.477 22.477 0 01-2.784 1.522c-.497.229-1.009.424-1.533.583a7.3 7.3 0 01-.837.206 3.382 3.382 0 01-1.067.044l.315.003a5.954 5.954 0 01-2.019.078 2.607 2.607 0 01-1.173-.483 2.165 2.165 0 01-.776-1.176 3.818 3.818 0 01.187-2.236 4.882 4.882 0 011.151-1.757c.243-.236.505-.452.784-.643l.705-.499 1.407-1.002 2.803-2.018c1.862-1.35 3.724-2.705 5.531-4.102a24.06 24.06 0 002.49-2.119c.073-.072.138-.153.193-.239l.078-.107a.156.156 0 01.02-.056c.021-.028.011-.022.001.01.004.037.006.074.006.112.017.055.037.109.062.162.044.053.062.072.068.083a2.857 2.857 0 00-.972-.129l.415-.106-8.396 4.212-4.197 2.106-1.05.527c-.356.171-.662.353-1.151.549a5.024 5.024 0 01-2.956.241 3.622 3.622 0 01-1.524-.731 2.546 2.546 0 01-.882-1.815c-.016-.56.09-1.116.313-1.63.197-.472.468-.91.802-1.297a6.992 6.992 0 012.207-1.606l2.058-1.134 8.231-4.534 8.23-4.534 4.115-2.267 1.029-.567c.32-.191.59-.383.889-.571a9.152 9.152 0 001.588-1.345 16.101 16.101 0 003.304-8.008c.466-3.002.541-6.052.223-9.074l-.006-.065-.001-.003-.903-16.021-.844-16.02-.41-8.009c-.103-1.333-.074-2.671-.05-4.009l.074-4.013.309-16.045a.111.111 0 01.032-.075.11.11 0 01.15 0c.02.02.032.047.032.075l.31 16.025.074 4.005c.012 1.335.019 2.67.157 4.001l.623 7.993 1.222 15.984 1.163 15.983-.007-.067c.396 3.209.37 6.455-.077 9.658a17.664 17.664 0 01-3.763 9.127 11.294 11.294 0 01-1.971 1.694c-.36.233-.735.488-1.087.697l-1.026.57-4.104 2.279-8.207 4.559-8.207 4.559-2.051 1.14a5.142 5.142 0 00-1.596 1.096 2.569 2.569 0 00-.436.686 1.657 1.657 0 00-.153.653c.018.148.016.153.103.24.173.127.371.215.581.259a2.817 2.817 0 001.654-.134c.241-.088.62-.29.969-.457l1.054-.517 4.217-2.068 8.433-4.135.026-.012a.927.927 0 01.389-.093c.36-.009.72.018 1.075.079.462.065.9.248 1.271.53.302.239.504.582.569.961.05.325.011.657-.113.961a5.52 5.52 0 01-.157.338l-.169.249a3.096 3.096 0 01-.351.432 24.377 24.377 0 01-2.784 2.349 203.485 203.485 0 01-5.627 4.089l-2.847 1.981-1.428.983-.715.489c-.2.13-.387.278-.561.442a3.097 3.097 0 00-.752 1.1 2.195 2.195 0 00-.155 1.157c.067.227.14.307.557.407.473.062.953.045 1.421-.049l.316.003c-.068-.01.087 0 .158-.007l.299-.034a6.04 6.04 0 00.652-.151c.456-.132.902-.294 1.335-.486a21.576 21.576 0 002.611-1.374 48.717 48.717 0 004.928-3.465c.784-.638 1.575-1.271 2.34-1.936l1.147-.999c.4-.378.835-.717 1.298-1.015a4.99 4.99 0 011.625-.643c.319-.07.648-.085.972-.045a1.41 1.41 0 011.075.69c.175.338.241.722.189 1.099a4.386 4.386 0 01-.185.871 5.75 5.75 0 01-.751 1.526 22.117 22.117 0 01-2.141 2.325l-2.151 2.182-4.302 4.366a18.065 18.065 0 00-2.005 2.188 3.367 3.367 0 00-.505 2.604 2.028 2.028 0 002.048 1.286c.984.041 1.97-.058 2.926-.293l.057-.009c-.065.007.082-.033.137-.073.082-.043.161-.09.237-.142.16-.098.317-.224.475-.338.313-.246.618-.509.918-.781a36.929 36.929 0 001.738-1.714 80.348 80.348 0 003.271-3.666c1.065-1.247 2.1-2.52 3.105-3.821a8.678 8.678 0 011.726-1.883 3.906 3.906 0 011.215-.587 1.688 1.688 0 011.487.194c.384.333.627.799.681 1.304a3.59 3.59 0 01-.044 1.366 4.55 4.55 0 01-.487 1.237l-.554 1.087a25.453 25.453 0 00-1.751 4.522c-.219.762-.35 1.547-.39 2.338a4.156 4.156 0 00.398 2.168c.404.702.747.86 1.359.44a6.882 6.882 0 001.563-1.654 71.909 71.909 0 004.794-8.517 47.638 47.638 0 012.44-4.386c.118-.181.267-.368.41-.55l.404-.466.808-.933 1.617-1.867 6.417-7.417a9.195 9.195 0 001.611-4.124c.174-1.509.03-3.038-.423-4.488a.978.978 0 01-.039-.318l.538-10.747.626-10.743 1.254-21.486c.205-3.59.546-7.148.596-10.729.095-3.581.145-7.163.151-10.746-.004-3.582-.008-7.166-.155-10.743a100.589 100.589 0 00-.353-5.353 25.49 25.49 0 00-.935-5.25l-.004-.011a.111.111 0 01.005-.082.111.111 0 01.061-.054.11.11 0 01.082.005.11.11 0 01.054.062v-.001z" fill="#0C513F"/>
  <path d="M561.351 420.294c.193 10.701-12.485 14.03-12.485 14.03s-68.233 11.418-73.368-15.036c-5.136-26.455 25.932-37.756 25.932-37.756 53.663-31.078 57.664-26.198 57.664-26.198l-.129 12.767c.012 9.007.523 18.007 1.53 26.958 0 0 .471 10.177.738 19.766-3.915-.781-7.852-1.37-11.789-1.884-4.119-.556-8.238-.995-12.367-1.402-4.13-.363-8.259-.706-12.399-.92-4.141-.225-8.292-.374-12.464-.321 4.087.824 8.195 1.445 12.303 1.991 4.119.556 8.238.984 12.367 1.38 4.129.364 8.259.706 12.399.921 3.969.224 7.949.374 11.95.331.054 1.841.086 3.65.118 5.373zm-15.884-84.475l.334.472-.011-.016.093.123-.013-.015a.209.209 0 01.067.147l-.016-.067.108.169.008.011c.417.618.782 1.267 1.154 1.913.017.03.027.063.029.097l.001.029v.01l-.032-.129c.371.655.709 1.323 1.027 2.017l-.029-.06c.125.253.18.403.258.578l.224.517c.149.342.275.707.412 1.063l.019.134c-.018-.177-.023-.118 0-.078l-.026-.062a.537.537 0 01.064.258l-.051-.217c.048.09.074.19.076.292l-.021-.14.221.662-.13.507c.016-.039.074-.018.141-.287a.526.526 0 00-.059-.318c-.02-.034-.007-.014.012.022a.596.596 0 01.057.241v.009l-.016-.131a14.8 14.8 0 01.527 2.838c.034.497.03.996-.014 1.493a8.137 8.137 0 01-.298 1.499l-.321-.838a16.05 16.05 0 002.305.906c.788.242 1.595.418 2.412.527.784.109 1.58.106 2.364-.009a5.525 5.525 0 001.088-.289l1.205-.495-.591.878-.146-3.289a.912.912 0 01.622-.91.93.93 0 01.388-.044l.027.003c2.098.229 4.199.418 6.299.601 2.1.178 4.2.32 6.3.426 2.1.11 4.202.183 6.296.123a27.238 27.238 0 006.134-.709l.064-.018a.498.498 0 01.529.176.493.493 0 01.106.323l-.036 1.166-.006-.071.26 2.128-.432-.357a45.118 45.118 0 006.3-.608 36.48 36.48 0 006.102-1.651 30.702 30.702 0 0010.596-6.634l-.204.462-.001-.011a.608.608 0 01.043-.238.593.593 0 01.136-.199l.028-.027a25.034 25.034 0 002.027-2.169c.315-.381.617-.769.899-1.166.277-.382.532-.78.764-1.192l-.084.556c-.734-2.947-1.401-5.907-2.187-8.839a346.039 346.039 0 00-2.314-8.803 756.822 756.822 0 00-5.089-17.473c-1.794-5.794-3.561-11.603-5.555-17.338a461.337 461.337 0 00-6.118-17.173l-.006-.015a.13.13 0 01-.007-.044l.001-.011.014.062-.267-.673a.106.106 0 01.06-.139.116.116 0 01.078.002c.025.01.046.029.059.053l.332.633a.11.11 0 01.013.048l.001.014v.011l-.012-.059c2.736 5.451 5.111 11.072 7.377 16.733 2.184 5.692 4.304 11.416 6.152 17.231 1.905 5.796 3.536 11.68 5.025 17.595 1.538 5.903 2.814 11.872 4.002 17.852l.009.045a.705.705 0 01-.093.511c-.291.46-.609.902-.953 1.324-.332.414-.678.809-1.033 1.192a26.364 26.364 0 01-2.262 2.16l.207-.464v.011l-.001.039a.592.592 0 01-.203.423 32.958 32.958 0 01-5.313 3.719 36.971 36.971 0 01-5.888 2.637 44.208 44.208 0 01-6.215 1.659 62.276 62.276 0 01-6.384.792.407.407 0 01-.428-.331l-.005-.025-.378-2.11-.004-.042-.001-.03-.036-1.166.698.481a27.548 27.548 0 01-6.421 1.163 69.748 69.748 0 01-6.427.24 109.496 109.496 0 01-12.767-.962l1.037-.951.088 3.281a.912.912 0 01-.591.879l-1.224.456a7.205 7.205 0 01-1.442.334 9.99 9.99 0 01-2.837-.076 14.573 14.573 0 01-2.654-.7c-.86-.31-1.695-.688-2.496-1.13a.693.693 0 01-.327-.818l.007-.02c.134-.391.235-.793.3-1.202a8.35 8.35 0 00.098-1.274 13.623 13.623 0 00-.312-2.631l-.008-.038a.418.418 0 01-.008-.093v-.009a.576.576 0 00.054.224c.018.035.029.052.007.015a.536.536 0 01-.06-.326c.068-.274.13-.258.15-.301l-.13.507-.164-.665-.021-.14a.337.337 0 00.034.142 1.067 1.067 0 01-.038-.145l-.014-.073a.543.543 0 00.016.106.301.301 0 00.027.068l-.027-.063a.68.68 0 01-.042-.227l.019.133c-.101-.348-.186-.697-.304-1.05l-.173-.525c-.055-.173-.127-.372-.148-.461l-.029-.06a26.15 26.15 0 00-.814-2.028l-.012-.027a.244.244 0 01-.02-.104l.001-.01.029.125c-.316-.665-.609-1.344-.942-2.003l.007.011-.105-.216-.016-.067c.014.075.005.03.025.062l-.001.002h-.003l-.01-.018-.078-.134-.011-.016-.266-.491-.003-.006a.108.108 0 01.038-.142.104.104 0 01.077-.013.1.1 0 01.066.043zm-15.654-124.691a18.103 18.103 0 00-2.931 6.734 22.656 22.656 0 00-.485 3.604 26.552 26.552 0 00.121 3.633l.102.908c.046.365.063.732.05 1.099a8.642 8.642 0 01-.359 2.093 7.23 7.23 0 01-2.317 3.517 31.221 31.221 0 00-3.035 2.176 4.316 4.316 0 00-.966 1.369 2.628 2.628 0 00-.209 1.563l-.026-.058c.16.25.373.462.624.621.276.178.581.305.902.375a5.067 5.067 0 002.045.03.328.328 0 01.125.001.328.328 0 01.202.139.344.344 0 01.046.116l.004.034.002.024c.074.995.138 1.991.236 2.983a31.96 31.96 0 001.915 8.616 4.384 4.384 0 001.361 2.006c.062.024.108.071.172.089l.314.102c.22.066.446.127.676.183.457.118.925.22 1.397.307 1.912.33 3.85.482 5.79.453.975-.024 1.95-.044 2.926-.104l1.489-.107a6.382 6.382 0 011.803.122 5.866 5.866 0 013.128 1.862 8.623 8.623 0 011.642 2.956c.638 2.005.949 4.099.921 6.202a33.579 33.579 0 01-.514 6.096l.003-.047-.099 1.356-.063.675c-.03.239-.029.416-.084.707a.101.101 0 01-.103.082.101.101 0 01-.095-.091l-.005-.058-.246-2.655.002-.048a46.387 46.387 0 00-.275-5.927 21.682 21.682 0 00-1.305-5.582 4.888 4.888 0 00-1.253-2.09 4.885 4.885 0 00-2.107-1.222 5.45 5.45 0 00-1.19-.053l-1.512.101a35.323 35.323 0 01-3.088.054 33.408 33.408 0 01-6.166-.739 20.187 20.187 0 01-1.525-.404 14.936 14.936 0 01-.759-.266l-.392-.159a3.517 3.517 0 01-.481-.282 4.161 4.161 0 01-1.214-1.444 9.077 9.077 0 01-.647-1.519c-1.191-4.076-1.049-8.112-1.302-12.141l.378.313a6.328 6.328 0 01-2.304-.004 4.17 4.17 0 01-1.127-.418 2.68 2.68 0 01-.957-.863.195.195 0 01-.023-.051l-.002-.007a4.461 4.461 0 011.023-4.002 27.23 27.23 0 012.83-2.581 6.628 6.628 0 001.61-2.845c.152-.532.24-1.081.262-1.634a5.096 5.096 0 00-.01-.791l-.082-.977a19.484 19.484 0 01.881-7.773 14.849 14.849 0 014.125-6.51.106.106 0 01.143.001.11.11 0 01.014.143l-.006.007zm83.82 133.162c-12.838 9.76-28.923 10.765-28.923 10.765s3.183 20.098-1.043 54.473a27.228 27.228 0 00-.449 5.361 103.73 103.73 0 0110.623-.246 98.2 98.2 0 0111.052.792 35.554 35.554 0 0014.389-9.76c14.378-19.777-5.649-61.385-5.649-61.385zm-19.824 71.423c-3.53-.107-7.061-.278-10.591-.728.086 1.06.353 1.884.931 1.991l-1.401 16.962 19.588 1.274s-3.242-12.264 1.979-19.36l.578-.417a98.311 98.311 0 01-11.084.278zm4.098 17.551a1.605 1.605 0 010-3.21 1.602 1.602 0 011.549 1.605 1.605 1.605 0 01-1.549 1.605zm1.155-15.346a1.604 1.604 0 011.099 2.72c-.289.3-.683.475-1.099.49a1.605 1.605 0 01-1.098-2.721 1.604 1.604 0 011.098-.489zm-1.155 6.357a1.602 1.602 0 011.548 1.605 1.604 1.604 0 01-1.548 1.605 1.605 1.605 0 010-3.21z" fill="#0C513F"/>
  <path d="M619.265 405.57a26.439 26.439 0 018.335-1.089 20.14 20.14 0 014.263.548c1.451.321 2.826.92 4.05 1.763a8.384 8.384 0 012.823 3.488c.285.735.425 1.353.706 1.938a7.542 7.542 0 001.08 1.655 14.483 14.483 0 006.961 3.941 61.83 61.83 0 007.981 1.55 51.98 51.98 0 004.103.37c1.426.173 2.835.462 4.215.864 1.412.407 2.768.989 4.038 1.731.669.408 1.28.904 1.819 1.474a4.516 4.516 0 011.161 2.248 4.201 4.201 0 01-.356 2.464 7.308 7.308 0 01-1.279 1.86 15.182 15.182 0 01-3.343 2.61.097.097 0 01-.04.015.119.119 0 01-.042-.002.104.104 0 01-.066-.049.11.11 0 01.017-.133 21.975 21.975 0 002.62-3.107 6.11 6.11 0 00.824-1.688 3.01 3.01 0 00.022-1.598 4.484 4.484 0 00-2.367-2.293 18.3 18.3 0 00-3.635-1.337 37.51 37.51 0 00-3.883-.847 52.611 52.611 0 01-4.12-.593 34.238 34.238 0 01-8.071-2.438 22.989 22.989 0 01-7.071-4.574 10.28 10.28 0 01-1.337-1.696 7.343 7.343 0 01-.542-.958l-.46-.873a7.212 7.212 0 00-2.726-2.527 19.976 19.976 0 00-7.465-2.152 67.69 67.69 0 00-8.179-.354.11.11 0 01-.113-.103.12.12 0 01.021-.066.118.118 0 01.056-.042z" fill="#0C513F"/>
  <path d="M607.476 414.445a38.61 38.61 0 004.205-.713c.676-.154 1.34-.359 1.986-.614a26.392 26.392 0 012.054-.745 26.131 26.131 0 018.676-1.424c1.551.022 3.083.35 4.507.966a8.275 8.275 0 012.016 1.351 7.487 7.487 0 011.467 1.963c.363.711.634 1.465.806 2.245l.274.877c.121.283.259.559.414.826a9.551 9.551 0 002.668 2.772 25.112 25.112 0 007.587 3.32c1.362.372 2.745.695 4.143.947 1.394.254 2.817.385 4.25.628a37.204 37.204 0 018.329 2.357 15.274 15.274 0 013.869 2.124 5.418 5.418 0 011.461 1.83c.177.367.304.757.377 1.159.049.402.062.807.042 1.212a9.36 9.36 0 01-1.709 4.238 20.485 20.485 0 01-1.315 1.798l-.172.218-.258.247c-.16.162-.342.301-.54.415-.349.223-.72.41-1.107.559a28.372 28.372 0 01-8.777 1.255 93.193 93.193 0 01-17.3-1.341 50.972 50.972 0 01-8.496-2.161c-1.463-.573-2.603-1.141-3.964-1.587-1.319-.465-2.678-.854-4.044-1.223-5.48-1.457-11.122-2.467-16.774-3.385a.11.11 0 01-.071-.041.11.11 0 01-.021-.08.111.111 0 01.038-.067.11.11 0 01.072-.025c5.759.191 11.492.85 17.144 1.971 1.415.313 2.828.649 4.231 1.073 1.385.38 2.855 1.011 4.08 1.421a56.702 56.702 0 008.19 1.854 113.128 113.128 0 0016.896 1.577c1.41.007 2.816-.041 4.205-.143a17.577 17.577 0 004-.69c.286-.095.562-.218.825-.367.118-.055.226-.13.321-.22l.141-.112.169-.197a19.89 19.89 0 001.329-1.584 8.152 8.152 0 001.742-3.533 3.76 3.76 0 00-1.323-3.38 12.68 12.68 0 00-3.545-2.146 29.668 29.668 0 00-8.149-2.34c-5.631-.576-11.598-.986-16.865-4.099a10.467 10.467 0 01-3.318-3.284 9.095 9.095 0 01-.553-1.087l-.373-1.172a8.313 8.313 0 00-.615-1.795c-1.048-2.29-3.708-3.309-6.394-3.488a28.232 28.232 0 00-8.278.865c-.685.162-1.367.352-2.041.546-.713.2-1.44.344-2.176.432a27.113 27.113 0 01-4.329.211.11.11 0 01-.075-.034.106.106 0 01-.029-.076.114.114 0 01.03-.07.114.114 0 01.067-.034z" fill="#0C513F"/>
  <path d="M561.747 414.921c-.171 0-.343.011-.514 0v-.096l.514.096z" fill="#fff"/>
  <path d="M542.335 353.4a32.207 32.207 0 01-3.251 5.318 31.925 31.925 0 01-4.113 4.684 31.928 31.928 0 013.252-5.318 32.253 32.253 0 014.112-4.684z" fill="#0C513F"/>
  <path d="M610.687 338.21l2.049 6.08" stroke="#0C513F" stroke-width=".906" stroke-linecap="round" stroke-linejoin="round"/>
  <path d="M523.642 334.615c-2.783 2.911-5.637 5.747-8.478 8.602l-4.343 4.204-1.112 1.039c-.185.172-.409.352-.573.517l-.427.476c-.61.76-1.2 1.565-1.789 2.371-4.701 6.495-9.248 13.144-13.936 19.687-2.361 3.265-4.735 6.512-7.305 9.658-2.579 3.103-5.216 6.173-8.059 9.059a121.658 121.658 0 01-18.744 15.289.36.36 0 01-.076.038 483.334 483.334 0 00-15.951 6.145l-3.937 1.637a25.455 25.455 0 00-3.72 1.829 5.832 5.832 0 00-1.401 1.229c-.146.17-.245.375-.287.594a.368.368 0 00.122.357c.412.357.907.604 1.439.719.645.165 1.301.284 1.962.356a.877.877 0 01.334 1.622l-.023.012a25.56 25.56 0 00-2.664 1.767c-.411.31-.8.646-1.166 1.007-.309.28-.56.618-.737.996-.058.143-.018.132-.029.103.049.042.101.079.157.111.394.186.817.305 1.25.353 1.042.131 2.092.18 3.141.144a1.01 1.01 0 01.63 1.818l-.025.018c-.57.43-1.105.905-1.599 1.42-.45.434-.809.953-1.055 1.527-.073.228-.043.326-.02.37.089.129.214.23.36.29a5.67 5.67 0 001.856.466 1.07 1.07 0 01.804.523 1.079 1.079 0 01.07.958l-.009.021a1.543 1.543 0 00-.11.8c.004.052-.003-.046-.029-.022.035-.008.036.007.078.02.063.001.127.008.189.021a7.575 7.575 0 002.563-.67c1.821-.807 3.738-1.78 5.552-2.758a70.722 70.722 0 005.332-3.179 22.937 22.937 0 004.605-3.809l.04-.047a.929.929 0 01.199-.171 16.07 16.07 0 012.238-1.196 9.625 9.625 0 012.545-.749c.245-.016.483-.041.734-.039.265.024.528.05.792.093.278.086.551.187.818.305.254.168.496.354.725.556a4.488 4.488 0 01.986 2.871.747.747 0 01-.058.379l-.029.067a33.232 33.232 0 00-2.917 9.468 4.757 4.757 0 00.211 2.115c.105.251.29.459.526.593.305.208.63.386.969.532.823.585 1.978-1.22 2.864-2.534 1.818-2.839 3.63-5.841 5.386-8.687a26.166 26.166 0 002.43-9.791.109.109 0 01.036-.073.104.104 0 01.148.007c.019.02.03.046.03.073.082 3.48-.549 6.94-1.852 10.168-.804 1.601-1.667 3.013-2.491 4.534-.834 1.496-1.654 2.997-2.537 4.491a18.1 18.1 0 01-1.496 2.225 3.7 3.7 0 01-1.222 1.019 2.24 2.24 0 01-.94.229 2.907 2.907 0 01-.876-.163 6.453 6.453 0 01-1.306-.646 2.807 2.807 0 01-.679-.538 2.988 2.988 0 01-.495-.734 6.27 6.27 0 01-.435-2.93c.147-1.78.494-3.537 1.035-5.239a49.548 49.548 0 011.776-4.942l-.088.446a2.664 2.664 0 00-.469-1.499 1.486 1.486 0 00-1.31-.233 7.645 7.645 0 00-1.935.61 14.21 14.21 0 00-1.89 1.037l.239-.217a24.89 24.89 0 01-5.036 4.308 63.274 63.274 0 01-5.519 3.3c-1.9 1.011-3.738 1.964-5.778 2.842a9.245 9.245 0 01-3.543.788 9.106 9.106 0 01-.593-.087 4.07 4.07 0 01-.659-.261 2.171 2.171 0 01-.96-1.249 2.811 2.811 0 01-.071-1.247 4.21 4.21 0 01.285-1.04l.865 1.502a7.539 7.539 0 01-2.612-.744 2.815 2.815 0 01-1.273-1.303 2.59 2.59 0 01-.035-1.901 6.546 6.546 0 011.556-2.285 15.157 15.157 0 011.905-1.638l.606 1.837a21.621 21.621 0 01-3.495-.221 5.66 5.66 0 01-1.912-.618 3.368 3.368 0 01-.524-.396 2.04 2.04 0 01-.444-.671 1.996 1.996 0 01.025-1.511 4.824 4.824 0 011.223-1.661c.435-.408.896-.786 1.38-1.132a26.854 26.854 0 012.928-1.831l.311 1.634a15.712 15.712 0 01-2.229-.469 4.601 4.601 0 01-2.24-1.326 2.228 2.228 0 01-.397-.752 2.118 2.118 0 01-.029-.872l.096-.402.162-.331c.104-.204.232-.396.38-.571a7.233 7.233 0 011.846-1.518 26.558 26.558 0 014.017-1.788l4.021-1.49 16.12-5.744-.075.037a89.385 89.385 0 0018.292-15.494c2.678-2.97 5.163-6.114 7.594-9.304 2.39-3.19 4.709-6.481 7.058-9.738l7.078-9.772c2.379-3.247 4.713-6.524 7.198-9.712a67.304 67.304 0 011.945-2.369c.183-.202.408-.415.613-.616.199-.181.375-.308.566-.47l1.132-.977 4.496-4.012 9.036-8.005a.117.117 0 01.036-.021.095.095 0 01.041-.006.119.119 0 01.041.011.115.115 0 01.033.025.113.113 0 01.027.074.114.114 0 01-.03.072z" fill="#0C513F"/>
  <path d="M523.639 334.61c-2.782 2.911-5.638 5.747-8.474 8.605l-4.343 4.205-1.113 1.038c-.182.172-.406.354-.577.514l-.428.482c-.61.76-1.199 1.562-1.787 2.365l-13.929 19.691c-2.364 3.264-4.739 6.517-7.307 9.664-2.578 3.103-5.221 6.164-8.056 9.054a122.19 122.19 0 01-18.754 15.292.413.413 0 01-.075.032 515.033 515.033 0 00-15.951 6.143 250.942 250.942 0 00-3.937 1.638 26.471 26.471 0 00-3.712 1.83 5.678 5.678 0 00-1.401 1.23c-.078.1-.147.208-.204.321l-.074.15a.563.563 0 01-.011.129.345.345 0 00.117.353c.414.357.911.603 1.445.717.31.085.631.15.952.214l.492.064.513.075a.887.887 0 01.749.995.91.91 0 01-.427.642h-.011c-.492.289-.995.6-1.477.931a24 24 0 00-1.187.835c-.407.313-.797.649-1.166 1.006a3.424 3.424 0 00-.739.995.283.283 0 00-.021.107l.011.011a.782.782 0 00.139.096c.394.189.817.309 1.252.354.797.11 1.602.16 2.407.149h.738a1.015 1.015 0 011.027.996.93.93 0 01-.096.417.87.87 0 01-.3.407l-.032.01c-.566.434-1.099.91-1.594 1.424-.45.435-.81.955-1.059 1.53-.075.225-.043.321-.022.364.09.131.217.231.364.289.462.22.957.361 1.466.417.128.022.257.043.385.054a1.076 1.076 0 01.877 1.477l-.01.021a2.082 2.082 0 00-.065.193v.01a1.19 1.19 0 00-.042.589.14.14 0 01.053.011c.061.001.122.009.182.021a7.51 7.51 0 002.568-.674c1.818-.803 3.733-1.777 5.552-2.751a71.35 71.35 0 005.328-3.189 23.195 23.195 0 004.611-3.799l.032-.053c.06-.066.128-.124.203-.172a17.976 17.976 0 012.236-1.198 9.795 9.795 0 012.546-.749c.246-.011.481-.032.738-.032.266.017.53.049.792.096.277.082.549.182.813.3.256.167.499.353.727.556.649.814.996 1.827.985 2.868a.803.803 0 01-.065.396l-.021.054a47.419 47.419 0 00-1.829 4.676 22.781 22.781 0 00-1.092 4.795 4.877 4.877 0 00.214 2.108c.051.122.124.235.215.332.03.05.07.093.117.128l.064.054.129.085c.305.209.631.385.973.525.824.588 1.979-1.22 2.857-2.526 1.818-2.847 3.637-5.843 5.392-8.69a26.293 26.293 0 002.428-9.792.119.119 0 01.011-.041.111.111 0 01.064-.053.104.104 0 01.043-.002.09.09 0 01.039.009.082.082 0 01.032.024.09.09 0 01.02.034.09.09 0 01.005.04 25.47 25.47 0 01-1.851 10.166c-.802 1.595-1.669 3.008-2.493 4.527-.834 1.498-1.647 3.007-2.535 4.495a18.395 18.395 0 01-1.498 2.226 3.672 3.672 0 01-1.219 1.017 2.268 2.268 0 01-.942.235 2.765 2.765 0 01-.877-.171 6.729 6.729 0 01-1.305-.642 2.626 2.626 0 01-.674-.535 2.739 2.739 0 01-.503-.739 6.263 6.263 0 01-.428-2.932c.146-1.777.49-3.533 1.027-5.233a51.465 51.465 0 011.669-4.655 2.278 2.278 0 00-.449-1.338 1.45 1.45 0 00-1.305-.236 7.607 7.607 0 00-1.937.61c-.625.286-1.229.615-1.808.985a25.586 25.586 0 01-4.878 4.142 63.517 63.517 0 01-5.521 3.296c-1.893 1.016-3.733 1.969-5.776 2.846a9.267 9.267 0 01-3.542.792c-.203-.032-.396-.053-.599-.096a4.575 4.575 0 01-.652-.257 2.296 2.296 0 01-.899-1.049.717.717 0 01-.064-.203 2.763 2.763 0 01-.097-.995 5.944 5.944 0 01-1.016-.332 3.82 3.82 0 01-.417-.203 2.807 2.807 0 01-1.273-1.295 2.453 2.453 0 01-.161-1.413c.029-.167.072-.332.129-.492a6.199 6.199 0 011.465-2.194c-.203-.011-.406-.043-.609-.064-.097-.011-.193-.032-.289-.043a5.68 5.68 0 01-1.915-.621 4.115 4.115 0 01-.524-.396 1.984 1.984 0 01-.439-.674 2.026 2.026 0 010-1.466c.01-.021.01-.032.021-.043a4.839 4.839 0 011.231-1.659c.31-.299.631-.567.962-.834.289-.204.578-.418.867-.621a.08.08 0 01.043-.021c.171-.107.332-.225.503-.332-.011 0-.011 0-.022-.011a4.4 4.4 0 01-2.204-1.305 2.297 2.297 0 01-.406-.75 2.214 2.214 0 01-.022-.877c.022-.138.054-.274.097-.407l.16-.321c.105-.205.23-.398.375-.578a7.38 7.38 0 011.851-1.519 27.5 27.5 0 014.011-1.788l4.023-1.487 16.079-5.726a89.414 89.414 0 0018.262-15.474c2.675-2.975 5.157-6.111 7.596-9.3 2.386-3.189 4.707-6.485 7.05-9.739 4.707-6.528 9.35-13.088 14.282-19.488a65.297 65.297 0 011.947-2.365c.182-.203.407-.417.61-.621.204-.181.375-.31.567-.47l1.134-.974 4.493-4.013 9.03-8.005a.112.112 0 01.082-.027c.03.002.058.015.078.037a.1.1 0 01-.01.139z" fill="#0C513F"/>
  <path d="M451.637 411.271c-1.203 1.158-9.434 6.158-10.827 6.987a59.177 59.177 0 01-3.471 1.905c-.274.136-.547.273-.829.41a34.405 34.405 0 01-3.353 1.467c.009-.018.009-.027.018-.036a4.125 4.125 0 011.048-1.413c.264-.255.537-.483.82-.711.246-.173.492-.355.738-.528a.074.074 0 01.036-.019 75.885 75.885 0 012.077-1.421c.657-.419 1.312-.83 1.987-1.221 1.393-.839 10.161-4.909 11.756-5.42zm0 4.884c-1.312 1.419-9.639 7.256-11.184 8.345l-.846.583a74.034 74.034 0 01-3.925 2.498c-.234.136-.467.272-.7.399a2.66 2.66 0 01.117-.448 5.614 5.614 0 011.331-1.992c-.185-.01-.369-.039-.554-.059a74.524 74.524 0 012.215-1.681 36.4 36.4 0 011.244-.894c1.545-1.089 10.523-5.993 12.302-6.751zm0 4.726c-1.143 1.371-9.71 8.387-11.111 9.42-.278.209-.567.418-.855.617v.009c-.635.458-1.271.905-1.927 1.332a.694.694 0 01-.06-.189 2.551 2.551 0 01-.089-.924 5.51 5.51 0 01-.944-.308c.626-.527 2.434-1.928 2.693-2.127 1.39-1.043 10.653-7.115 12.293-7.83zM567.811 272.74a16.832 16.832 0 0110.729.836 24.085 24.085 0 018.678 6.608 49.945 49.945 0 016.155 9.018 84.156 84.156 0 014.592 9.874 171.084 171.084 0 016.476 20.72c1.797 7.007 3.097 14.123 4.306 21.24.009.05.013.1.013.15v.011l-.012-.149c1.671 10.384 2.826 20.839 3.743 31.301.428 5.234.902 10.463 1.24 15.703.33 5.24.665 10.476.901 15.728l-.546-.291a31.709 31.709 0 0110.651-3.737 28.225 28.225 0 0111.303.347c1.865.439 3.638 1.145 5.366 1.693 1.75.529 3.543.905 5.358 1.124 1.787.224 3.597.199 5.378-.076.87-.141 1.724-.368 2.55-.676a8.258 8.258 0 002.163-1.196l.023 1.215a30.1 30.1 0 01-5.576-8.082c-1.486-2.854-2.811-5.767-4.074-8.703-2.515-5.876-4.796-11.829-7.037-17.792-4.503-11.918-8.651-23.947-13.037-35.881-4.436-11.909-8.795-23.856-14.029-35.413-1.305-2.898-2.663-5.729-4.206-8.482a67.532 67.532 0 00-5.205-7.883 49.687 49.687 0 00-13.892-12.694l-.008-.005a.2.2 0 01-.076-.077.216.216 0 01-.027-.105l.001-.011.11.187a31.319 31.319 0 00-2.254-1.197 24.3 24.3 0 00-1.164-.523c-.376-.168-.825-.314-1.164-.436l-.06-.022a.105.105 0 01-.056-.05.098.098 0 01-.006-.075.099.099 0 01.048-.058.095.095 0 01.074-.009c.428.11.849.244 1.262.401.403.15.803.31 1.199.479a31.26 31.26 0 012.329 1.116c.033.017.06.042.079.074a.2.2 0 01.031.104v.009l.001.011-.111-.188a48.353 48.353 0 0114.583 12.357 76.442 76.442 0 0110.018 16.378c5.437 11.555 10.157 23.41 14.57 35.356 4.437 11.939 8.686 23.938 12.992 35.897 2.177 5.969 4.392 11.925 6.827 17.773 1.229 2.917 2.47 5.83 3.881 8.643a28.977 28.977 0 005.042 7.666l.084.081a.75.75 0 01.175.819.761.761 0 01-.237.316 11.481 11.481 0 01-5.594 2.16 20.78 20.78 0 01-5.777-.064 32.863 32.863 0 01-5.552-1.316c-1.811-.632-3.502-1.344-5.264-1.802a27.257 27.257 0 00-10.915-.579 30.548 30.548 0 00-10.398 3.531l-.015.008a.355.355 0 01-.532-.299 319.425 319.425 0 00-.908-15.699c-.425-5.226-.862-10.452-1.481-15.658a512.612 512.612 0 00-2.027-15.592c-.719-5.191-1.643-10.346-2.516-15.508a1.057 1.057 0 01-.012-.149v-.011l.012.15c-1.222-7.083-2.716-14.111-4.357-21.095a169.326 169.326 0 00-6.187-20.574c-2.566-6.648-5.541-13.268-10.07-18.761a24.233 24.233 0 00-8.125-6.673 16.852 16.852 0 00-10.39-1.284.111.111 0 01-.081-.016.114.114 0 01-.045-.068.106.106 0 01.016-.078.108.108 0 01.064-.047zM254.85 218.31s6.875 8.566 17.145 5.741c0 0 21.552-9.468.944-19.541s-21.333-7.663-29.229-9.209c-2.087-.409-16.322-4.058-23.933 5.2a16.448 16.448 0 00-3.439 12.438c.144 1.195.313 2.491.491 3.636.29 1.858.255 3.753-.102 5.6a54.748 54.748 0 00.649 23.061s12.738 1.895 20-7.149c0 0 1.425-16.025 10.182-5.555 0 0 7.292 2.729 7.292-14.222zm268.825 25.326a19.33 19.33 0 003.959.049 5.71 5.71 0 001.743-.547 7.522 7.522 0 001.581-1.195 3.352 3.352 0 01-1.104 1.881 4.194 4.194 0 01-2.066.919 5.615 5.615 0 01-2.193-.157 5.022 5.022 0 01-1.92-.95zm-262.138 10.806a4.455 4.455 0 01-3.878 4.412 4.383 4.383 0 01-4.54-2.547 4.47 4.47 0 01-.002-3.733 4.393 4.393 0 012.736-2.399 4.377 4.377 0 011.806-.151 4.46 4.46 0 013.878 4.418zm0 0a3.442 3.442 0 00-1.242-2.638 3.315 3.315 0 00-2.636-.704 3.396 3.396 0 000 6.689 3.302 3.302 0 002.637-.709 3.426 3.426 0 001.241-2.638z" fill="#0C513F"/>
  <path d="M583.218 414.889a.208.208 0 010 .086c-.16-.011-.31-.032-.47-.054.16-.01.31-.032.47-.032zm-37.454-78.4a.089.089 0 01.022.043 3.943 3.943 0 01-.108-.173c.032.044.054.087.086.13z" fill="#fff"/>
  <path d="M649.709 400.512a1.603 1.603 0 001.099-2.721 1.604 1.604 0 00-1.099-.489 1.604 1.604 0 00-1.099 2.721 1.6 1.6 0 001.099.489zm-8.088-1.926a1.608 1.608 0 000-3.211 1.605 1.605 0 000 3.211zm-7.317-1.926a1.605 1.605 0 001.099-2.722 1.604 1.604 0 00-1.099-.489 1.608 1.608 0 000 3.211zm-7.318 0a1.605 1.605 0 001.099-2.722 1.604 1.604 0 00-1.099-.489 1.604 1.604 0 00-1.099 2.721c.289.3.683.475 1.099.49zm-236.551-84.32a18.102 18.102 0 014.156 2.103 17.915 17.915 0 013.567 2.995 17.904 17.904 0 01-4.156-2.103 18.073 18.073 0 01-3.567-2.995zm-3.408 4.367a17.829 17.829 0 014.124 2.082 17.64 17.64 0 013.536 2.975 17.621 17.621 0 01-4.125-2.082 17.79 17.79 0 01-3.535-2.975zm-5.106 3.723a25.623 25.623 0 014.906 2.599 25.347 25.347 0 014.318 3.491 25.376 25.376 0 01-4.907-2.598 25.61 25.61 0 01-4.317-3.492zm-17.034 2.404a86.45 86.45 0 018.811 5.177 85.493 85.493 0 018.223 6.069 85.497 85.497 0 01-8.811-5.176 86.563 86.563 0 01-8.223-6.07zm-3.471 4.326a86.45 86.45 0 018.811 5.177 85.493 85.493 0 018.223 6.069 85.618 85.618 0 01-8.812-5.176 86.55 86.55 0 01-8.222-6.07zm-3.542 4.756a86.266 86.266 0 018.811 5.177 85.369 85.369 0 018.223 6.069 85.325 85.325 0 01-8.811-5.177 86.38 86.38 0 01-8.223-6.069zm11.262-13.014a86.565 86.565 0 018.812 5.176 85.49 85.49 0 018.222 6.07 85.506 85.506 0 01-8.811-5.177 86.553 86.553 0 01-8.223-6.069zm1.234-103.293a38.094 38.094 0 001.882-9.292c.129-1.578.15-3.164.062-4.745-.025-.79-.175-1.572-.257-2.358a17.79 17.79 0 00-.372-2.339l-.518-2.311c-.187-.767-.476-1.505-.708-2.258a38.59 38.59 0 00-1.767-4.381 37.674 37.674 0 00-5.2-7.837l-.751-.905c-.266-.288-.554-.556-.83-.835l-1.67-1.656-1.82-1.49-.911-.742c-.316-.231-.651-.435-.976-.655l-1.96-1.295c-.675-.395-1.376-.747-2.063-1.123a36.22 36.22 0 00-4.283-1.926 37.354 37.354 0 00-18.538-1.832 36.375 36.375 0 00-4.594 1.077c-.747.247-1.524.414-2.248.726l-2.189.899a35.865 35.865 0 00-18.883 20.225 35.92 35.92 0 00-1.815 18.591 36.371 36.371 0 007.65 16.975l.176.217-.093.268-5.798 16.691-.649-.746 23.27-4.699.143-.029.14.044a36.86 36.86 0 0027.205-1.84 35.855 35.855 0 0018.365-20.419zm.105.037a37.576 37.576 0 01-18.184 20.957 36.555 36.555 0 01-27.834 2.335l.283.016-23.267 4.713-.986.199.336-.946 5.918-16.649.082.484a37.07 37.07 0 01-5.501-36.372 37.737 37.737 0 0128.257-23.402 36.868 36.868 0 0118.975 1.587 36.127 36.127 0 0115.59 10.971c.502.627 1.022 1.24 1.501 1.883l1.315 2.017c.45.664.851 1.36 1.2 2.082.363.714.762 1.411 1.094 2.138a39.392 39.392 0 011.677 4.494c.217.77.489 1.524.659 2.304l.465 2.35a38.058 38.058 0 01-1.58 18.839z" fill="#0C513F"/>
</svg>
